hintordertest_dmm.ufo
<glyph name="uni001E" format="2">
  <advance width="935"/>
  <unicode hex="001E"/>
  <outline>
    <contour>
      <point x="837" y="-169" type="curve" smooth="yes"/>
      <point x="875" y="-169"/>
      <point x="905" y="-139"/>
      <point x="905" y="-101" type="curve" smooth="yes"/>
      <point x="905" y="-63"/>
      <point x="875" y="-33"/>
      <point x="837" y="-33" type="curve" smooth="yes"/>
      <point x="799" y="-33"/>
      <point x="769" y="-63"/>
      <point x="769" y="-101" type="curve" smooth="yes"/>
      <point x="769" y="-139"/>
      <point x="799" y="-169"/>
    </contour>
    <contour>
      <point x="20" y="0" type="line"/>
      <point x="272" y="0" type="line"/>
      <point x="272" y="64" type="line"/>
      <point x="148" y="64" type="line"/>
      <point x="124" y="64" type="line"/>
      <point x="20" y="64" type="line"/>
    </contour>
    <contour>
      <point x="80" y="0" type="line"/>
      <point x="152" y="0" type="line"/>
      <point x="290" y="405" type="line"/>
      <point x="331" y="588" type="line"/>
      <point x="350" y="588" type="line"/>
      <point x="556" y="0" type="line"/>
      <point x="672" y="0" type="line"/>
      <point x="426" y="674" type="line"/>
      <point x="322" y="674" type="line"/>
    </contour>
    <contour>
      <point x="200" y="208" type="line"/>
      <point x="512" y="208" type="line"/>
      <point x="512" y="268" type="line"/>
      <point x="200" y="268" type="line"/>
    </contour>
    <contour>
      <point x="428" y="0" type="line"/>
      <point x="740" y="0" type="line"/>
      <point x="740" y="64" type="line"/>
      <point x="602" y="64" type="line"/>
      <point x="568" y="64" type="line"/>
      <point x="428" y="64" type="line"/>
    </contour>
  </outline>
</glyph>
<glyph name="uni001E" format="2">
  <advance width="947"/>
  <unicode hex="001E"/>
  <outline>
    <contour>
      <point x="809" y="-210" type="curve" smooth="yes"/>
      <point x="775" y="-210"/>
      <point x="751" y="-186"/>
      <point x="751" y="-152" type="curve" smooth="yes"/>
      <point x="751" y="-118"/>
      <point x="775" y="-94"/>
      <point x="809" y="-94" type="curve" smooth="yes"/>
      <point x="843" y="-94"/>
      <point x="867" y="-118"/>
      <point x="867" y="-152" type="curve" smooth="yes"/>
      <point x="867" y="-186"/>
      <point x="843" y="-210"/>
    </contour>
    <contour>
      <point x="809" y="-254" type="curve" smooth="yes"/>
      <point x="871" y="-254"/>
      <point x="917" y="-210"/>
      <point x="917" y="-152" type="curve" smooth="yes"/>
      <point x="917" y="-94"/>
      <point x="871" y="-50"/>
      <point x="809" y="-50" type="curve" smooth="yes"/>
      <point x="747" y="-50"/>
      <point x="701" y="-94"/>
      <point x="701" y="-152" type="curve" smooth="yes"/>
      <point x="701" y="-210"/>
      <point x="747" y="-254"/>
    </contour>
    <contour>
      <point x="416" y="-16" type="curve" smooth="yes"/>
      <point x="528" y="-16"/>
      <point x="604" y="8"/>
      <point x="644" y="28" type="curve"/>
      <point x="648" y="184" type="line"/>
      <point x="584" y="184" type="line"/>
      <point x="552" y="36" type="line"/>
      <point x="624" y="36" type="line"/>
      <point x="624" y="100" type="line"/>
      <point x="580" y="72"/>
      <point x="512" y="48"/>
      <point x="420" y="48" type="curve" smooth="yes"/>
      <point x="268" y="48"/>
      <point x="160" y="148"/>
      <point x="160" y="336" type="curve" smooth="yes"/>
      <point x="160" y="524"/>
      <point x="276" y="622"/>
      <point x="424" y="622" type="curve" smooth="yes"/>
      <point x="504" y="622"/>
      <point x="568" y="598"/>
      <point x="612" y="570" type="curve"/>
      <point x="612" y="634" type="line"/>
      <point x="540" y="634" type="line"/>
      <point x="572" y="492" type="line"/>
      <point x="636" y="492" type="line"/>
      <point x="632" y="642" type="line"/>
      <point x="592" y="662"/>
      <point x="520" y="686"/>
      <point x="424" y="686" type="curve" smooth="yes"/>
      <point x="212" y="686"/>
      <point x="48" y="556"/>
      <point x="48" y="332" type="curve" smooth="yes"/>
      <point x="48" y="108"/>
      <point x="204" y="-16"/>
    </contour>
  </outline>
</glyph>
<glyph name="uni001E" format="2">
  <advance width="984"/>
  <unicode hex="001E"/>
  <outline>
    <contour>
      <point x="238" y="0" type="line"/>
      <point x="570" y="0" type="line"/>
      <point x="570" y="64" type="line"/>
      <point x="418" y="64" type="line"/>
      <point x="374" y="64" type="line"/>
      <point x="238" y="64" type="line"/>
    </contour>
    <contour>
      <point x="342" y="0" type="curve"/>
      <point x="450" y="0" type="line"/>
      <point x="450" y="104"/>
      <point x="450" y="208"/>
      <point x="450" y="312" type="curve" smooth="yes"/>
      <point x="450" y="360" type="line" smooth="yes"/>
      <point x="450" y="464"/>
      <point x="450" y="566"/>
      <point x="450" y="670" type="curve"/>
      <point x="342" y="670" type="line"/>
      <point x="342" y="566"/>
      <point x="342" y="464"/>
      <point x="342" y="360" type="curve" smooth="yes"/>
      <point x="342" y="312" type="line" smooth="yes"/>
      <point x="342" y="208"/>
      <point x="342" y="104"/>
    </contour>
    <contour>
      <point x="398" y="308" type="line"/>
      <point x="650" y="308" type="line"/>
      <point x="650" y="368" type="line"/>
      <point x="398" y="368" type="line"/>
    </contour>
    <contour>
      <point x="100" y="726" type="curve" smooth="yes"/>
      <point x="138" y="726"/>
      <point x="168" y="756"/>
      <point x="168" y="794" type="curve" smooth="yes"/>
      <point x="168" y="832"/>
      <point x="138" y="862"/>
      <point x="100" y="862" type="curve" smooth="yes"/>
      <point x="62" y="862"/>
      <point x="32" y="832"/>
      <point x="32" y="794" type="curve" smooth="yes"/>
      <point x="32" y="756"/>
      <point x="62" y="726"/>
    </contour>
    <contour>
      <point x="622" y="220" type="line"/>
      <point x="682" y="220" type="line"/>
      <point x="682" y="456" type="line"/>
      <point x="622" y="456" type="line"/>
      <point x="598" y="352" type="line"/>
      <point x="598" y="324" type="line"/>
    </contour>
    <contour>
      <point x="238" y="606" type="line"/>
      <point x="374" y="606" type="line"/>
      <point x="390" y="606" type="line"/>
      <point x="390" y="670" type="line"/>
      <point x="238" y="670" type="line"/>
    </contour>
    <contour>
      <point x="742" y="488" type="line"/>
      <point x="806" y="488" type="line"/>
      <point x="798" y="670" type="line"/>
      <point x="390" y="670" type="line"/>
      <point x="390" y="606" type="line"/>
      <point x="750" y="606" type="line"/>
      <point x="702" y="646" type="line"/>
    </contour>
  </outline>
</glyph>
<glyph name="uni001E" format="2">
  <advance width="1326"/>
  <unicode hex="001E"/>
  <outline>
    <contour>
      <point x="298" y="0" type="line"/>
      <point x="614" y="0" type="line"/>
      <point x="614" y="64" type="line"/>
      <point x="478" y="64" type="line"/>
      <point x="434" y="64" type="line"/>
      <point x="298" y="64" type="line"/>
    </contour>
    <contour>
      <point x="402" y="0" type="curve"/>
      <point x="510" y="0" type="line"/>
      <point x="510" y="107"/>
      <point x="510" y="215"/>
      <point x="510" y="322" type="curve" smooth="yes"/>
      <point x="510" y="360" type="line" smooth="yes"/>
      <point x="510" y="464"/>
      <point x="510" y="566"/>
      <point x="510" y="670" type="curve"/>
      <point x="402" y="670" type="line"/>
      <point x="402" y="566"/>
      <point x="402" y="464"/>
      <point x="402" y="360" type="curve" smooth="yes"/>
      <point x="402" y="312" type="line" smooth="yes"/>
      <point x="402" y="208"/>
      <point x="402" y="104"/>
    </contour>
    <contour>
      <point x="462" y="312" type="line"/>
      <point x="910" y="312" type="line"/>
      <point x="910" y="376" type="line"/>
      <point x="462" y="376" type="line"/>
    </contour>
    <contour>
      <point x="132" y="757" type="curve" smooth="yes"/>
      <point x="98" y="757"/>
      <point x="74" y="781"/>
      <point x="74" y="815" type="curve" smooth="yes"/>
      <point x="74" y="849"/>
      <point x="98" y="873"/>
      <point x="132" y="873" type="curve" smooth="yes"/>
      <point x="166" y="873"/>
      <point x="190" y="849"/>
      <point x="190" y="815" type="curve" smooth="yes"/>
      <point x="190" y="781"/>
      <point x="166" y="757"/>
    </contour>
    <contour>
      <point x="132" y="713" type="curve" smooth="yes"/>
      <point x="194" y="713"/>
      <point x="240" y="757"/>
      <point x="240" y="815" type="curve" smooth="yes"/>
      <point x="240" y="873"/>
      <point x="194" y="917"/>
      <point x="132" y="917" type="curve" smooth="yes"/>
      <point x="70" y="917"/>
      <point x="24" y="873"/>
      <point x="24" y="815" type="curve" smooth="yes"/>
      <point x="24" y="757"/>
      <point x="70" y="713"/>
    </contour>
    <contour>
      <point x="758" y="0" type="line"/>
      <point x="1074" y="0" type="line"/>
      <point x="1074" y="64" type="line"/>
      <point x="938" y="64" type="line"/>
      <point x="894" y="64" type="line"/>
      <point x="758" y="64" type="line"/>
    </contour>
    <contour>
      <point x="862" y="0" type="curve"/>
      <point x="970" y="0" type="line"/>
      <point x="970" y="104"/>
      <point x="970" y="208"/>
      <point x="970" y="312" type="curve" smooth="yes"/>
      <point x="970" y="360" type="line" smooth="yes"/>
      <point x="970" y="464"/>
      <point x="970" y="566"/>
      <point x="970" y="670" type="curve"/>
      <point x="862" y="670" type="line"/>
      <point x="862" y="566"/>
      <point x="862" y="464"/>
      <point x="862" y="360" type="curve" smooth="yes"/>
      <point x="862" y="322" type="line" smooth="yes"/>
      <point x="862" y="215"/>
      <point x="862" y="107"/>
    </contour>
    <contour>
      <point x="298" y="606" type="line"/>
      <point x="434" y="606" type="line"/>
      <point x="478" y="606" type="line"/>
      <point x="614" y="606" type="line"/>
      <point x="614" y="670" type="line"/>
      <point x="298" y="670" type="line"/>
    </contour>
    <contour>
      <point x="758" y="606" type="line"/>
      <point x="894" y="606" type="line"/>
      <point x="938" y="606" type="line"/>
      <point x="1074" y="606" type="line"/>
      <point x="1074" y="670" type="line"/>
      <point x="758" y="670" type="line"/>
    </contour>
  </outline>
</glyph>
<glyph name="uni001E" format="2">
  <advance width="1296"/>
  <unicode hex="001E"/>
  <outline>
    <contour>
      <point x="103" y="718" type="curve" smooth="yes"/>
      <point x="139" y="718"/>
      <point x="167" y="746"/>
      <point x="167" y="782" type="curve" smooth="yes"/>
      <point x="167" y="818"/>
      <point x="139" y="846"/>
      <point x="103" y="846" type="curve" smooth="yes"/>
      <point x="67" y="846"/>
      <point x="39" y="818"/>
      <point x="39" y="782" type="curve" smooth="yes"/>
      <point x="39" y="746"/>
      <point x="67" y="718"/>
    </contour>
    <contour>
      <point x="319" y="718" type="curve" smooth="yes"/>
      <point x="355" y="718"/>
      <point x="383" y="746"/>
      <point x="383" y="782" type="curve" smooth="yes"/>
      <point x="383" y="818"/>
      <point x="355" y="846"/>
      <point x="319" y="846" type="curve" smooth="yes"/>
      <point x="283" y="846"/>
      <point x="255" y="818"/>
      <point x="255" y="782" type="curve" smooth="yes"/>
      <point x="255" y="746"/>
      <point x="283" y="718"/>
    </contour>
    <contour>
      <point x="585" y="-132" type="curve" smooth="yes"/>
      <point x="649" y="-132"/>
      <point x="693" y="-108"/>
      <point x="723" y="-72" type="curve" smooth="yes"/>
      <point x="763" y="-24"/>
      <point x="783" y="32"/>
      <point x="783" y="157" type="curve" smooth="yes"/>
      <point x="783" y="360" type="line" smooth="yes"/>
      <point x="783" y="464"/>
      <point x="783" y="566"/>
      <point x="783" y="670" type="curve"/>
      <point x="675" y="670" type="line"/>
      <point x="675" y="459"/>
      <point x="675" y="251"/>
      <point x="675" y="116" type="curve" smooth="yes"/>
      <point x="675" y="-32"/>
      <point x="671" y="-54"/>
      <point x="655" y="-89" type="curve"/>
      <point x="669" y="-80" type="line"/>
      <point x="629" y="-80" type="line"/>
      <point x="654" y="-88" type="line"/>
      <point x="631" y="-65" type="line" smooth="yes"/>
      <point x="607" y="-41"/>
      <point x="590" y="-32"/>
      <point x="558" y="-32" type="curve" smooth="yes"/>
      <point x="519" y="-32"/>
      <point x="497" y="-49"/>
      <point x="493" y="-84" type="curve"/>
      <point x="500" y="-117"/>
      <point x="530" y="-132"/>
    </contour>
    <contour>
      <point x="555" y="606" type="line"/>
      <point x="707" y="606" type="line"/>
      <point x="751" y="606" type="line"/>
      <point x="887" y="606" type="line"/>
      <point x="887" y="670" type="line"/>
      <point x="555" y="670" type="line"/>
    </contour>
  </outline>
</glyph>
<glyph name="uni001E" format="2">
  <advance width="1174"/>
  <unicode hex="001E"/>
  <outline>
    <contour>
      <point x="864" y="-177" type="curve" smooth="yes"/>
      <point x="900" y="-177"/>
      <point x="928" y="-149"/>
      <point x="928" y="-113" type="curve" smooth="yes"/>
      <point x="928" y="-77"/>
      <point x="900" y="-49"/>
      <point x="864" y="-49" type="curve" smooth="yes"/>
      <point x="828" y="-49"/>
      <point x="800" y="-77"/>
      <point x="800" y="-113" type="curve" smooth="yes"/>
      <point x="800" y="-149"/>
      <point x="828" y="-177"/>
    </contour>
    <contour>
      <point x="1080" y="-177" type="curve" smooth="yes"/>
      <point x="1116" y="-177"/>
      <point x="1144" y="-149"/>
      <point x="1144" y="-113" type="curve" smooth="yes"/>
      <point x="1144" y="-77"/>
      <point x="1116" y="-49"/>
      <point x="1080" y="-49" type="curve" smooth="yes"/>
      <point x="1044" y="-49"/>
      <point x="1016" y="-77"/>
      <point x="1016" y="-113" type="curve" smooth="yes"/>
      <point x="1016" y="-149"/>
      <point x="1044" y="-177"/>
    </contour>
    <contour>
      <point x="384" y="-16" type="curve" smooth="yes"/>
      <point x="584" y="-16"/>
      <point x="720" y="128"/>
      <point x="720" y="340" type="curve" smooth="yes"/>
      <point x="720" y="552"/>
      <point x="584" y="686"/>
      <point x="384" y="686" type="curve" smooth="yes"/>
      <point x="184" y="686"/>
      <point x="48" y="544"/>
      <point x="48" y="332" type="curve" smooth="yes"/>
      <point x="48" y="120"/>
      <point x="184" y="-16"/>
    </contour>
    <contour>
      <point x="384" y="48" type="curve" smooth="yes"/>
      <point x="236" y="48"/>
      <point x="160" y="172"/>
      <point x="160" y="336" type="curve" smooth="yes"/>
      <point x="160" y="500"/>
      <point x="236" y="622"/>
      <point x="384" y="622" type="curve" smooth="yes"/>
      <point x="532" y="622"/>
      <point x="608" y="500"/>
      <point x="608" y="336" type="curve" smooth="yes"/>
      <point x="608" y="172"/>
      <point x="532" y="48"/>
    </contour>
  </outline>
</glyph>
<glyph name="uni001E" format="2">
  <advance width="1095"/>
  <unicode hex="001E"/>
  <outline>
    <contour>
      <point x="127" y="771" type="curve" smooth="yes"/>
      <point x="93" y="771"/>
      <point x="69" y="795"/>
      <point x="69" y="829" type="curve" smooth="yes"/>
      <point x="69" y="863"/>
      <point x="93" y="887"/>
      <point x="127" y="887" type="curve" smooth="yes"/>
      <point x="161" y="887"/>
      <point x="185" y="863"/>
      <point x="185" y="829" type="curve" smooth="yes"/>
      <point x="185" y="795"/>
      <point x="161" y="771"/>
    </contour>
    <contour>
      <point x="127" y="727" type="curve" smooth="yes"/>
      <point x="189" y="727"/>
      <point x="235" y="771"/>
      <point x="235" y="829" type="curve" smooth="yes"/>
      <point x="235" y="887"/>
      <point x="189" y="931"/>
      <point x="127" y="931" type="curve" smooth="yes"/>
      <point x="65" y="931"/>
      <point x="19" y="887"/>
      <point x="19" y="829" type="curve" smooth="yes"/>
      <point x="19" y="771"/>
      <point x="65" y="727"/>
    </contour>
    <contour>
      <point x="513" y="-16" type="curve" smooth="yes"/>
      <point x="673" y="-16"/>
      <point x="773" y="60"/>
      <point x="773" y="178" type="curve" smooth="yes"/>
      <point x="773" y="300"/>
      <point x="681" y="344"/>
      <point x="569" y="388" type="curve" smooth="yes"/>
      <point x="533" y="402" type="line" smooth="yes"/>
      <point x="445" y="436"/>
      <point x="409" y="462"/>
      <point x="409" y="520" type="curve" smooth="yes"/>
      <point x="409" y="578"/>
      <point x="453" y="624"/>
      <point x="545" y="624" type="curve" smooth="yes"/>
      <point x="609" y="624"/>
      <point x="657" y="602"/>
      <point x="701" y="574" type="curve"/>
      <point x="701" y="638" type="line"/>
      <point x="637" y="638" type="line"/>
      <point x="669" y="492" type="line"/>
      <point x="733" y="492" type="line"/>
      <point x="733" y="638" type="line"/>
      <point x="705" y="658"/>
      <point x="633" y="686"/>
      <point x="545" y="686" type="curve" smooth="yes"/>
      <point x="405" y="686"/>
      <point x="305" y="620"/>
      <point x="305" y="506" type="curve" smooth="yes"/>
      <point x="305" y="388"/>
      <point x="397" y="344"/>
      <point x="509" y="300" type="curve" smooth="yes"/>
      <point x="545" y="286" type="line" smooth="yes"/>
      <point x="633" y="252"/>
      <point x="669" y="224"/>
      <point x="669" y="162" type="curve" smooth="yes"/>
      <point x="669" y="100"/>
      <point x="625" y="46"/>
      <point x="513" y="46" type="curve" smooth="yes"/>
      <point x="433" y="46"/>
      <point x="377" y="72"/>
      <point x="325" y="108" type="curve"/>
      <point x="325" y="44" type="line"/>
      <point x="389" y="44" type="line"/>
      <point x="357" y="192" type="line"/>
      <point x="293" y="192" type="line"/>
      <point x="293" y="36" type="line"/>
      <point x="329" y="16"/>
      <point x="409" y="-16"/>
    </contour>
  </outline>
</glyph>
<glyph name="uni001E" format="2">
  <advance width="1537"/>
  <unicode hex="001E"/>
  <outline>
    <contour>
      <point x="823" y="-16" type="curve" smooth="yes"/>
      <point x="991" y="-16"/>
      <point x="1087" y="84"/>
      <point x="1087" y="260" type="curve" smooth="yes"/>
      <point x="1087" y="670" type="line"/>
      <point x="1019" y="670" type="line"/>
      <point x="1019" y="264" type="line" smooth="yes"/>
      <point x="1019" y="116"/>
      <point x="951" y="48"/>
      <point x="839" y="48" type="curve" smooth="yes"/>
      <point x="727" y="48"/>
      <point x="659" y="116"/>
      <point x="659" y="264" type="curve" smooth="yes"/>
      <point x="659" y="360" type="line" smooth="yes"/>
      <point x="659" y="464"/>
      <point x="659" y="566"/>
      <point x="659" y="670" type="curve"/>
      <point x="551" y="670" type="line"/>
      <point x="551" y="566"/>
      <point x="551" y="464"/>
      <point x="551" y="360" type="curve" smooth="yes"/>
      <point x="551" y="248" type="line" smooth="yes"/>
      <point x="551" y="76"/>
      <point x="655" y="-16"/>
    </contour>
    <contour>
      <point x="447" y="606" type="line"/>
      <point x="567" y="606" type="line"/>
      <point x="643" y="606" type="line"/>
      <point x="771" y="606" type="line"/>
      <point x="771" y="670" type="line"/>
      <point x="447" y="670" type="line"/>
    </contour>
    <contour>
      <point x="103" y="718" type="curve" smooth="yes"/>
      <point x="139" y="718"/>
      <point x="167" y="746"/>
      <point x="167" y="782" type="curve" smooth="yes"/>
      <point x="167" y="818"/>
      <point x="139" y="846"/>
      <point x="103" y="846" type="curve" smooth="yes"/>
      <point x="67" y="846"/>
      <point x="39" y="818"/>
      <point x="39" y="782" type="curve" smooth="yes"/>
      <point x="39" y="746"/>
      <point x="67" y="718"/>
    </contour>
    <contour>
      <point x="319" y="718" type="curve" smooth="yes"/>
      <point x="355" y="718"/>
      <point x="383" y="746"/>
      <point x="383" y="782" type="curve" smooth="yes"/>
      <point x="383" y="818"/>
      <point x="355" y="846"/>
      <point x="319" y="846" type="curve" smooth="yes"/>
      <point x="283" y="846"/>
      <point x="255" y="818"/>
      <point x="255" y="782" type="curve" smooth="yes"/>
      <point x="255" y="746"/>
      <point x="283" y="718"/>
    </contour>
    <contour>
      <point x="907" y="606" type="line"/>
      <point x="1035" y="606" type="line"/>
      <point x="1071" y="606" type="line"/>
      <point x="1187" y="606" type="line"/>
      <point x="1187" y="670" type="line"/>
      <point x="907" y="670" type="line"/>
    </contour>
  </outline>
</glyph>
<glyph name="uni001E" format="2">
  <advance width="987"/>
  <unicode hex="001E"/>
  <outline>
    <contour>
      <point x="12" y="0" type="line"/>
      <point x="272" y="0" type="line"/>
      <point x="272" y="64" type="line"/>
      <point x="164" y="64" type="line"/>
      <point x="144" y="64" type="line"/>
      <point x="12" y="64" type="line"/>
    </contour>
    <contour>
      <point x="849" y="-192" type="curve" smooth="yes"/>
      <point x="815" y="-192"/>
      <point x="791" y="-168"/>
      <point x="791" y="-134" type="curve" smooth="yes"/>
      <point x="791" y="-100"/>
      <point x="815" y="-76"/>
      <point x="849" y="-76" type="curve" smooth="yes"/>
      <point x="883" y="-76"/>
      <point x="907" y="-100"/>
      <point x="907" y="-134" type="curve" smooth="yes"/>
      <point x="907" y="-168"/>
      <point x="883" y="-192"/>
    </contour>
    <contour>
      <point x="849" y="-236" type="curve" smooth="yes"/>
      <point x="911" y="-236"/>
      <point x="957" y="-192"/>
      <point x="957" y="-134" type="curve" smooth="yes"/>
      <point x="957" y="-76"/>
      <point x="911" y="-32"/>
      <point x="849" y="-32" type="curve" smooth="yes"/>
      <point x="787" y="-32"/>
      <point x="741" y="-76"/>
      <point x="741" y="-134" type="curve" smooth="yes"/>
      <point x="741" y="-192"/>
      <point x="787" y="-236"/>
    </contour>
    <contour>
      <point x="56" y="0" type="line"/>
      <point x="138" y="0" type="line"/>
      <point x="241" y="167" type="line"/>
      <point x="298" y="299" type="line"/>
      <point x="348" y="299" type="line"/>
      <point x="305" y="346" type="line"/>
    </contour>
    <contour>
      <point x="380" y="0" type="line"/>
      <point x="684" y="0" type="line"/>
      <point x="684" y="64" type="line"/>
      <point x="560" y="64" type="line"/>
      <point x="504" y="64" type="line"/>
      <point x="380" y="64" type="line"/>
    </contour>
    <contour>
      <point x="379" y="326" type="line"/>
      <point x="628" y="670" type="line"/>
      <point x="546" y="670" type="line"/>
      <point x="447" y="510" type="line"/>
      <point x="395" y="385" type="line"/>
      <point x="336" y="385" type="line"/>
    </contour>
    <contour>
      <point x="512" y="0" type="line"/>
      <point x="636" y="0" type="line"/>
      <point x="188" y="670" type="line"/>
      <point x="64" y="670" type="line"/>
    </contour>
    <contour>
      <point x="16" y="606" type="line"/>
      <point x="140" y="606" type="line"/>
      <point x="196" y="606" type="line"/>
      <point x="320" y="606" type="line"/>
      <point x="320" y="670" type="line"/>
      <point x="16" y="670" type="line"/>
    </contour>
    <contour>
      <point x="412" y="606" type="line"/>
      <point x="524" y="606" type="line"/>
      <point x="560" y="606" type="line"/>
      <point x="672" y="606" type="line"/>
      <point x="672" y="670" type="line"/>
      <point x="412" y="670" type="line"/>
    </contour>
  </outline>
</glyph>
<glyph name="uni001E" format="2">
  <advance width="1012"/>
  <unicode hex="001E"/>
  <outline>
    <contour>
      <point x="342" y="0" type="line"/>
      <point x="682" y="0" type="line"/>
      <point x="682" y="64" type="line"/>
      <point x="534" y="64" type="line"/>
      <point x="490" y="64" type="line"/>
      <point x="342" y="64" type="line"/>
    </contour>
    <contour>
      <point x="458" y="0" type="curve"/>
      <point x="566" y="0" type="line"/>
      <point x="566" y="100"/>
      <point x="566" y="200"/>
      <point x="566" y="300" type="curve"/>
      <point x="458" y="300" type="line"/>
      <point x="458" y="200"/>
      <point x="458" y="100"/>
    </contour>
    <contour>
      <point x="29" y="695" type="line"/>
      <point x="105" y="695" type="line"/>
      <point x="113" y="891" type="line"/>
      <point x="21" y="891" type="line"/>
    </contour>
    <contour>
      <point x="472" y="201" type="line"/>
      <point x="552" y="201" type="line"/>
      <point x="798" y="670" type="line"/>
      <point x="718" y="670" type="line"/>
      <point x="629" y="489" type="line"/>
      <point x="549" y="294" type="line"/>
      <point x="537" y="294" type="line"/>
      <point x="350" y="670" type="line"/>
      <point x="226" y="670" type="line"/>
    </contour>
    <contour>
      <point x="174" y="606" type="line"/>
      <point x="278" y="606" type="line"/>
      <point x="358" y="606" type="line"/>
      <point x="478" y="606" type="line"/>
      <point x="478" y="670" type="line"/>
      <point x="174" y="670" type="line"/>
    </contour>
    <contour>
      <point x="590" y="606" type="line"/>
      <point x="702" y="606" type="line"/>
      <point x="750" y="606" type="line"/>
      <point x="850" y="606" type="line"/>
      <point x="850" y="670" type="line"/>
      <point x="590" y="670" type="line"/>
    </contour>
  </outline>
</glyph>
<glyph name="uni001E" format="2">
  <advance width="1038"/>
  <unicode hex="001E"/>
  <outline>
    <contour>
      <point x="728" y="-161" type="curve" smooth="yes"/>
      <point x="764" y="-161"/>
      <point x="792" y="-133"/>
      <point x="792" y="-97" type="curve" smooth="yes"/>
      <point x="792" y="-61"/>
      <point x="764" y="-33"/>
      <point x="728" y="-33" type="curve" smooth="yes"/>
      <point x="692" y="-33"/>
      <point x="664" y="-61"/>
      <point x="664" y="-97" type="curve" smooth="yes"/>
      <point x="664" y="-133"/>
      <point x="692" y="-161"/>
    </contour>
    <contour>
      <point x="944" y="-161" type="curve" smooth="yes"/>
      <point x="980" y="-161"/>
      <point x="1008" y="-133"/>
      <point x="1008" y="-97" type="curve" smooth="yes"/>
      <point x="1008" y="-61"/>
      <point x="980" y="-33"/>
      <point x="944" y="-33" type="curve" smooth="yes"/>
      <point x="908" y="-33"/>
      <point x="880" y="-61"/>
      <point x="880" y="-97" type="curve" smooth="yes"/>
      <point x="880" y="-133"/>
      <point x="908" y="-161"/>
    </contour>
    <contour>
      <point x="28" y="0" type="line"/>
      <point x="584" y="0" type="line"/>
      <point x="592" y="192" type="line"/>
      <point x="528" y="192" type="line"/>
      <point x="488" y="24" type="line"/>
      <point x="536" y="60" type="line"/>
      <point x="323" y="60" type="line"/>
      <point x="150" y="47" type="line"/>
      <point x="150" y="89" type="line"/>
      <point x="132" y="35" type="line"/>
      <point x="568" y="622" type="line"/>
      <point x="568" y="670" type="line"/>
      <point x="52" y="670" type="line"/>
      <point x="44" y="480" type="line"/>
      <point x="108" y="480" type="line"/>
      <point x="148" y="646" type="line"/>
      <point x="100" y="610" type="line"/>
      <point x="282" y="610" type="line"/>
      <point x="445" y="623" type="line"/>
      <point x="445" y="581" type="line"/>
      <point x="463" y="635" type="line"/>
      <point x="28" y="48" type="line"/>
    </contour>
  </outline>
</glyph>
<glyph name="uni001E" format="2">
  <advance width="1014"/>
  <unicode hex="001E"/>
  <outline>
    <contour>
      <point x="385" y="-16" type="curve" smooth="yes"/>
      <point x="475" y="-16"/>
      <point x="515" y="40"/>
      <point x="535" y="84" type="curve"/>
      <point x="575" y="84" type="line"/>
      <point x="575" y="148" type="line"/>
      <point x="531" y="100"/>
      <point x="491" y="56"/>
      <point x="427" y="56" type="curve" smooth="yes"/>
      <point x="371" y="56"/>
      <point x="339" y="92"/>
      <point x="339" y="140" type="curve" smooth="yes"/>
      <point x="339" y="188"/>
      <point x="363" y="214"/>
      <point x="435" y="236" type="curve" smooth="yes"/>
      <point x="487" y="252"/>
      <point x="539" y="268"/>
      <point x="591" y="284" type="curve"/>
      <point x="591" y="330" type="line"/>
      <point x="528" y="313"/>
      <point x="466" y="297"/>
      <point x="403" y="280" type="curve" smooth="yes"/>
      <point x="299" y="252"/>
      <point x="243" y="208"/>
      <point x="243" y="120" type="curve" smooth="yes"/>
      <point x="243" y="32"/>
      <point x="307" y="-16"/>
    </contour>
    <contour>
      <point x="98" y="571" type="curve" smooth="yes"/>
      <point x="136" y="571"/>
      <point x="166" y="601"/>
      <point x="166" y="639" type="curve" smooth="yes"/>
      <point x="166" y="677"/>
      <point x="136" y="707"/>
      <point x="98" y="707" type="curve" smooth="yes"/>
      <point x="60" y="707"/>
      <point x="30" y="677"/>
      <point x="30" y="639" type="curve" smooth="yes"/>
      <point x="30" y="601"/>
      <point x="60" y="571"/>
    </contour>
    <contour>
      <point x="667" y="-12" type="curve" smooth="yes"/>
      <point x="711" y="-12"/>
      <point x="739" y="8"/>
      <point x="755" y="20" type="curve"/>
      <point x="743" y="68" type="line"/>
      <point x="733" y="64"/>
      <point x="719" y="60"/>
      <point x="703" y="60" type="curve" smooth="yes"/>
      <point x="671" y="60"/>
      <point x="655" y="76"/>
      <point x="655" y="116" type="curve" smooth="yes"/>
      <point x="655" y="348" type="line" smooth="yes"/>
      <point x="655" y="476"/>
      <point x="575" y="520"/>
      <point x="471" y="520" type="curve" smooth="yes"/>
      <point x="351" y="520"/>
      <point x="271" y="460"/>
      <point x="255" y="372" type="curve"/>
      <point x="259" y="352"/>
      <point x="275" y="328"/>
      <point x="311" y="328" type="curve" smooth="yes"/>
      <point x="347" y="328"/>
      <point x="367" y="348"/>
      <point x="371" y="396" type="curve" smooth="yes"/>
      <point x="379" y="492" type="line"/>
      <point x="341" y="444" type="line"/>
      <point x="367" y="457"/>
      <point x="399" y="464"/>
      <point x="443" y="464" type="curve" smooth="yes"/>
      <point x="519" y="464"/>
      <point x="559" y="428"/>
      <point x="559" y="340" type="curve" smooth="yes"/>
      <point x="559" y="108" type="line"/>
      <point x="563" y="108" type="line"/>
      <point x="567" y="24"/>
      <point x="607" y="-12"/>
    </contour>
  </outline>
</glyph>
<glyph name="uni001E" format="2">
  <advance width="1055"/>
  <unicode hex="001E"/>
  <outline>
    <contour>
      <point x="127" y="577" type="curve" smooth="yes"/>
      <point x="93" y="577"/>
      <point x="69" y="601"/>
      <point x="69" y="635" type="curve" smooth="yes"/>
      <point x="69" y="669"/>
      <point x="93" y="693"/>
      <point x="127" y="693" type="curve" smooth="yes"/>
      <point x="161" y="693"/>
      <point x="185" y="669"/>
      <point x="185" y="635" type="curve" smooth="yes"/>
      <point x="185" y="601"/>
      <point x="161" y="577"/>
    </contour>
    <contour>
      <point x="127" y="533" type="curve" smooth="yes"/>
      <point x="189" y="533"/>
      <point x="235" y="577"/>
      <point x="235" y="635" type="curve" smooth="yes"/>
      <point x="235" y="693"/>
      <point x="189" y="737"/>
      <point x="127" y="737" type="curve" smooth="yes"/>
      <point x="65" y="737"/>
      <point x="19" y="693"/>
      <point x="19" y="635" type="curve" smooth="yes"/>
      <point x="19" y="577"/>
      <point x="65" y="533"/>
    </contour>
    <contour>
      <point x="562" y="-12" type="curve" smooth="yes"/>
      <point x="682" y="-12"/>
      <point x="735" y="44"/>
      <point x="771" y="92" type="curve"/>
      <point x="725" y="136" type="line"/>
      <point x="695" y="104"/>
      <point x="658" y="62"/>
      <point x="576" y="62" type="curve" smooth="yes"/>
      <point x="478" y="62"/>
      <point x="414" y="134"/>
      <point x="414" y="258" type="curve" smooth="yes"/>
      <point x="414" y="382"/>
      <point x="478" y="464"/>
      <point x="578" y="464" type="curve" smooth="yes"/>
      <point x="634" y="464"/>
      <point x="666" y="452"/>
      <point x="694" y="440" type="curve"/>
      <point x="626" y="504" type="line"/>
      <point x="658" y="408" type="line" smooth="yes"/>
      <point x="668" y="378"/>
      <point x="684" y="352"/>
      <point x="720" y="352" type="curve" smooth="yes"/>
      <point x="754" y="352"/>
      <point x="770" y="376"/>
      <point x="774" y="408" type="curve"/>
      <point x="754" y="464"/>
      <point x="690" y="520"/>
      <point x="562" y="520" type="curve" smooth="yes"/>
      <point x="414" y="520"/>
      <point x="310" y="404"/>
      <point x="310" y="248" type="curve" smooth="yes"/>
      <point x="310" y="92"/>
      <point x="406" y="-12"/>
    </contour>
  </outline>
</glyph>
<glyph name="uni001E" format="2">
  <advance width="1334"/>
  <unicode hex="001E"/>
  <outline>
    <contour>
      <point x="100" y="571" type="curve" smooth="yes"/>
      <point x="136" y="571"/>
      <point x="164" y="599"/>
      <point x="164" y="635" type="curve" smooth="yes"/>
      <point x="164" y="671"/>
      <point x="136" y="699"/>
      <point x="100" y="699" type="curve" smooth="yes"/>
      <point x="64" y="699"/>
      <point x="36" y="671"/>
      <point x="36" y="635" type="curve" smooth="yes"/>
      <point x="36" y="599"/>
      <point x="64" y="571"/>
    </contour>
    <contour>
      <point x="316" y="571" type="curve" smooth="yes"/>
      <point x="352" y="571"/>
      <point x="380" y="599"/>
      <point x="380" y="635" type="curve" smooth="yes"/>
      <point x="380" y="671"/>
      <point x="352" y="699"/>
      <point x="316" y="699" type="curve" smooth="yes"/>
      <point x="280" y="699"/>
      <point x="252" y="671"/>
      <point x="252" y="635" type="curve" smooth="yes"/>
      <point x="252" y="599"/>
      <point x="280" y="571"/>
    </contour>
    <contour>
      <point x="710" y="-12" type="curve" smooth="yes"/>
      <point x="824" y="-12"/>
      <point x="880" y="36"/>
      <point x="926" y="101" type="curve"/>
      <point x="885" y="135" type="line"/>
      <point x="851" y="93"/>
      <point x="808" y="58"/>
      <point x="730" y="58" type="curve" smooth="yes"/>
      <point x="632" y="58"/>
      <point x="564" y="132"/>
      <point x="564" y="254" type="curve" smooth="yes"/>
      <point x="564" y="393"/>
      <point x="617" y="462"/>
      <point x="704" y="462" type="curve" smooth="yes"/>
      <point x="782" y="462"/>
      <point x="828" y="424"/>
      <point x="828" y="340" type="curve" smooth="yes"/>
      <point x="828" y="324"/>
      <point x="827" y="310"/>
      <point x="826" y="292" type="curve"/>
      <point x="532" y="292" type="line"/>
      <point x="532" y="240" type="line"/>
      <point x="912" y="240" type="line"/>
      <point x="916" y="257"/>
      <point x="920" y="292"/>
      <point x="920" y="320" type="curve" smooth="yes"/>
      <point x="920" y="442"/>
      <point x="841" y="520"/>
      <point x="704" y="520" type="curve" smooth="yes"/>
      <point x="556" y="520"/>
      <point x="464" y="402"/>
      <point x="464" y="246" type="curve" smooth="yes"/>
      <point x="464" y="92"/>
      <point x="552" y="-12"/>
    </contour>
  </outline>
</glyph>
<glyph name="uni001E" format="2">
  <advance width="967"/>
  <unicode hex="001E"/>
  <outline>
    <contour>
      <point x="48" y="0" type="line"/>
      <point x="312" y="0" type="line"/>
      <point x="312" y="60" type="line"/>
      <point x="196" y="60" type="line"/>
      <point x="164" y="60" type="line"/>
      <point x="48" y="60" type="line"/>
    </contour>
    <contour>
      <point x="132" y="0" type="curve"/>
      <point x="228" y="0" type="line"/>
      <point x="228" y="73"/>
      <point x="228" y="147"/>
      <point x="228" y="220" type="curve" smooth="yes"/>
      <point x="228" y="397" type="line"/>
      <point x="226" y="397" type="line"/>
      <point x="228" y="618" type="line"/>
      <point x="228" y="730" type="line"/>
      <point x="188" y="730" type="line"/>
      <point x="40" y="706" type="line"/>
      <point x="40" y="658" type="line"/>
      <point x="132" y="638" type="line"/>
      <point x="132" y="220" type="line" smooth="yes"/>
      <point x="132" y="147"/>
      <point x="132" y="73"/>
    </contour>
    <contour>
      <point x="829" y="-192" type="curve" smooth="yes"/>
      <point x="795" y="-192"/>
      <point x="771" y="-168"/>
      <point x="771" y="-134" type="curve" smooth="yes"/>
      <point x="771" y="-100"/>
      <point x="795" y="-76"/>
      <point x="829" y="-76" type="curve" smooth="yes"/>
      <point x="863" y="-76"/>
      <point x="887" y="-100"/>
      <point x="887" y="-134" type="curve" smooth="yes"/>
      <point x="887" y="-168"/>
      <point x="863" y="-192"/>
    </contour>
    <contour>
      <point x="829" y="-236" type="curve" smooth="yes"/>
      <point x="891" y="-236"/>
      <point x="937" y="-192"/>
      <point x="937" y="-134" type="curve" smooth="yes"/>
      <point x="937" y="-76"/>
      <point x="891" y="-32"/>
      <point x="829" y="-32" type="curve" smooth="yes"/>
      <point x="767" y="-32"/>
      <point x="721" y="-76"/>
      <point x="721" y="-134" type="curve" smooth="yes"/>
      <point x="721" y="-192"/>
      <point x="767" y="-236"/>
    </contour>
    <contour>
      <point x="396" y="0" type="line"/>
      <point x="656" y="0" type="line"/>
      <point x="656" y="60" type="line"/>
      <point x="540" y="60" type="line"/>
      <point x="508" y="60" type="line"/>
      <point x="396" y="60" type="line"/>
    </contour>
    <contour>
      <point x="476" y="0" type="curve"/>
      <point x="572" y="0" type="line"/>
      <point x="572" y="73"/>
      <point x="572" y="147"/>
      <point x="572" y="220" type="curve" smooth="yes"/>
      <point x="572" y="352" type="line" smooth="yes"/>
      <point x="572" y="460"/>
      <point x="520" y="520"/>
      <point x="416" y="520" type="curve" smooth="yes"/>
      <point x="336" y="520"/>
      <point x="288" y="472"/>
      <point x="262" y="416" type="curve"/>
      <point x="212" y="416" type="line"/>
      <point x="212" y="368" type="line"/>
      <point x="268" y="408"/>
      <point x="328" y="436"/>
      <point x="384" y="436" type="curve" smooth="yes"/>
      <point x="448" y="436"/>
      <point x="476" y="404"/>
      <point x="476" y="328" type="curve" smooth="yes"/>
      <point x="476" y="220" type="line" smooth="yes"/>
      <point x="476" y="147"/>
      <point x="476" y="73"/>
    </contour>
  </outline>
</glyph>
<glyph name="uni001E" format="2">
  <advance width="1542"/>
  <unicode hex="001E"/>
  <outline>
    <contour>
      <point x="315" y="0" type="line"/>
      <point x="575" y="0" type="line"/>
      <point x="575" y="60" type="line"/>
      <point x="463" y="60" type="line"/>
      <point x="431" y="60" type="line"/>
      <point x="315" y="60" type="line"/>
    </contour>
    <contour>
      <point x="127" y="577" type="curve" smooth="yes"/>
      <point x="93" y="577"/>
      <point x="69" y="601"/>
      <point x="69" y="635" type="curve" smooth="yes"/>
      <point x="69" y="669"/>
      <point x="93" y="693"/>
      <point x="127" y="693" type="curve" smooth="yes"/>
      <point x="161" y="693"/>
      <point x="185" y="669"/>
      <point x="185" y="635" type="curve" smooth="yes"/>
      <point x="185" y="601"/>
      <point x="161" y="577"/>
    </contour>
    <contour>
      <point x="127" y="533" type="curve" smooth="yes"/>
      <point x="189" y="533"/>
      <point x="235" y="577"/>
      <point x="235" y="635" type="curve" smooth="yes"/>
      <point x="235" y="693"/>
      <point x="189" y="737"/>
      <point x="127" y="737" type="curve" smooth="yes"/>
      <point x="65" y="737"/>
      <point x="19" y="693"/>
      <point x="19" y="635" type="curve" smooth="yes"/>
      <point x="19" y="577"/>
      <point x="65" y="533"/>
    </contour>
    <contour>
      <point x="399" y="0" type="curve"/>
      <point x="495" y="0" type="line"/>
      <point x="495" y="73"/>
      <point x="495" y="147"/>
      <point x="495" y="220" type="curve" smooth="yes"/>
      <point x="495" y="408" type="line"/>
      <point x="487" y="408" type="line"/>
      <point x="471" y="508" type="line"/>
      <point x="431" y="508" type="line"/>
      <point x="311" y="468" type="line"/>
      <point x="311" y="416" type="line"/>
      <point x="399" y="416" type="line"/>
      <point x="399" y="369"/>
      <point x="399" y="323"/>
      <point x="399" y="276" type="curve" smooth="yes"/>
      <point x="399" y="220" type="line" smooth="yes"/>
      <point x="399" y="147"/>
      <point x="399" y="73"/>
    </contour>
    <contour>
      <point x="655" y="0" type="line"/>
      <point x="915" y="0" type="line"/>
      <point x="915" y="60" type="line"/>
      <point x="799" y="60" type="line"/>
      <point x="767" y="60" type="line"/>
      <point x="655" y="60" type="line"/>
    </contour>
    <contour>
      <point x="735" y="0" type="curve"/>
      <point x="831" y="0" type="line"/>
      <point x="831" y="73"/>
      <point x="831" y="147"/>
      <point x="831" y="220" type="curve" smooth="yes"/>
      <point x="831" y="352" type="line" smooth="yes"/>
      <point x="831" y="460"/>
      <point x="781" y="520"/>
      <point x="679" y="520" type="curve" smooth="yes"/>
      <point x="601" y="520"/>
      <point x="551" y="472"/>
      <point x="519" y="416" type="curve"/>
      <point x="479" y="416" type="line"/>
      <point x="479" y="368" type="line"/>
      <point x="535" y="408"/>
      <point x="593" y="436"/>
      <point x="647" y="436" type="curve" smooth="yes"/>
      <point x="709" y="436"/>
      <point x="735" y="404"/>
      <point x="735" y="328" type="curve" smooth="yes"/>
      <point x="735" y="220" type="line" smooth="yes"/>
      <point x="735" y="147"/>
      <point x="735" y="73"/>
    </contour>
    <contour>
      <point x="991" y="0" type="line"/>
      <point x="1251" y="0" type="line"/>
      <point x="1251" y="60" type="line"/>
      <point x="1135" y="60" type="line"/>
      <point x="1103" y="60" type="line"/>
      <point x="991" y="60" type="line"/>
    </contour>
    <contour>
      <point x="1071" y="0" type="curve"/>
      <point x="1167" y="0" type="line"/>
      <point x="1167" y="73"/>
      <point x="1167" y="147"/>
      <point x="1167" y="220" type="curve" smooth="yes"/>
      <point x="1167" y="352" type="line" smooth="yes"/>
      <point x="1167" y="460"/>
      <point x="1117" y="520"/>
      <point x="1015" y="520" type="curve" smooth="yes"/>
      <point x="937" y="520"/>
      <point x="887" y="472"/>
      <point x="855" y="416" type="curve"/>
      <point x="815" y="416" type="line"/>
      <point x="815" y="368" type="line"/>
      <point x="871" y="408"/>
      <point x="929" y="436"/>
      <point x="983" y="436" type="curve" smooth="yes"/>
      <point x="1045" y="436"/>
      <point x="1071" y="404"/>
      <point x="1071" y="328" type="curve" smooth="yes"/>
      <point x="1071" y="220" type="line" smooth="yes"/>
      <point x="1071" y="147"/>
      <point x="1071" y="73"/>
    </contour>
  </outline>
</glyph>
<glyph name="uni001E" format="2">
  <advance width="1391"/>
  <unicode hex="001E"/>
  <outline>
    <contour>
      <point x="100" y="571" type="curve" smooth="yes"/>
      <point x="136" y="571"/>
      <point x="164" y="599"/>
      <point x="164" y="635" type="curve" smooth="yes"/>
      <point x="164" y="671"/>
      <point x="136" y="699"/>
      <point x="100" y="699" type="curve" smooth="yes"/>
      <point x="64" y="699"/>
      <point x="36" y="671"/>
      <point x="36" y="635" type="curve" smooth="yes"/>
      <point x="36" y="599"/>
      <point x="64" y="571"/>
    </contour>
    <contour>
      <point x="316" y="571" type="curve" smooth="yes"/>
      <point x="352" y="571"/>
      <point x="380" y="599"/>
      <point x="380" y="635" type="curve" smooth="yes"/>
      <point x="380" y="671"/>
      <point x="352" y="699"/>
      <point x="316" y="699" type="curve" smooth="yes"/>
      <point x="280" y="699"/>
      <point x="252" y="671"/>
      <point x="252" y="635" type="curve" smooth="yes"/>
      <point x="252" y="599"/>
      <point x="280" y="571"/>
    </contour>
    <contour>
      <point x="720" y="-12" type="curve" smooth="yes"/>
      <point x="856" y="-12"/>
      <point x="976" y="92"/>
      <point x="976" y="258" type="curve" smooth="yes"/>
      <point x="976" y="424"/>
      <point x="856" y="520"/>
      <point x="720" y="520" type="curve" smooth="yes"/>
      <point x="584" y="520"/>
      <point x="464" y="420"/>
      <point x="464" y="252" type="curve" smooth="yes"/>
      <point x="464" y="84"/>
      <point x="584" y="-12"/>
    </contour>
    <contour>
      <point x="720" y="48" type="curve" smooth="yes"/>
      <point x="624" y="48"/>
      <point x="568" y="116"/>
      <point x="568" y="256" type="curve" smooth="yes"/>
      <point x="568" y="392"/>
      <point x="624" y="460"/>
      <point x="720" y="460" type="curve" smooth="yes"/>
      <point x="816" y="460"/>
      <point x="872" y="392"/>
      <point x="872" y="252" type="curve" smooth="yes"/>
      <point x="872" y="116"/>
      <point x="816" y="48"/>
    </contour>
  </outline>
</glyph>
<glyph name="uni001E" format="2">
  <advance width="1280"/>
  <unicode hex="001E"/>
  <outline>
    <contour>
      <point x="630" y="-225" type="line"/>
      <point x="906" y="-225" type="line"/>
      <point x="906" y="-165" type="line"/>
      <point x="790" y="-165" type="line"/>
      <point x="758" y="-165" type="line"/>
      <point x="630" y="-165" type="line"/>
    </contour>
    <contour>
      <point x="554" y="-12" type="curve" smooth="yes"/>
      <point x="642" y="-12"/>
      <point x="674" y="36"/>
      <point x="702" y="92" type="curve"/>
      <point x="758" y="92" type="line"/>
      <point x="758" y="180" type="line"/>
      <point x="702" y="104"/>
      <point x="658" y="60"/>
      <point x="586" y="60" type="curve" smooth="yes"/>
      <point x="506" y="60"/>
      <point x="446" y="120"/>
      <point x="446" y="256" type="curve" smooth="yes"/>
      <point x="446" y="392"/>
      <point x="506" y="452"/>
      <point x="586" y="452" type="curve" smooth="yes"/>
      <point x="658" y="452"/>
      <point x="702" y="408"/>
      <point x="758" y="332" type="curve"/>
      <point x="758" y="420" type="line"/>
      <point x="706" y="420" type="line"/>
      <point x="674" y="472"/>
      <point x="642" y="520"/>
      <point x="554" y="520" type="curve" smooth="yes"/>
      <point x="434" y="520"/>
      <point x="342" y="424"/>
      <point x="342" y="252" type="curve" smooth="yes"/>
      <point x="342" y="80"/>
      <point x="434" y="-12"/>
    </contour>
    <contour>
      <point x="16" y="550" type="line"/>
      <point x="276" y="550" type="line"/>
      <point x="276" y="618" type="line"/>
      <point x="16" y="618" type="line"/>
    </contour>
    <contour>
      <point x="726" y="-225" type="curve"/>
      <point x="822" y="-225" type="line"/>
      <point x="822" y="-165"/>
      <point x="822" y="-105"/>
      <point x="822" y="-45" type="curve" smooth="yes"/>
      <point x="822" y="400" type="line"/>
      <point x="822" y="508" type="line"/>
      <point x="770" y="508" type="line"/>
      <point x="732" y="408" type="line"/>
      <point x="726" y="408" type="line"/>
      <point x="726" y="100" type="line"/>
      <point x="734" y="100" type="line"/>
      <point x="726" y="-45" type="line"/>
      <point x="726" y="-105"/>
      <point x="726" y="-165"/>
    </contour>
  </outline>
</glyph>
<glyph name="uni001E" format="2">
  <advance width="809"/>
  <unicode hex="001E"/>
  <outline>
    <contour>
      <point x="48" y="0" type="line"/>
      <point x="340" y="0" type="line"/>
      <point x="340" y="60" type="line"/>
      <point x="196" y="60" type="line"/>
      <point x="164" y="60" type="line"/>
      <point x="48" y="60" type="line"/>
    </contour>
    <contour>
      <point x="671" y="-192" type="curve" smooth="yes"/>
      <point x="637" y="-192"/>
      <point x="613" y="-168"/>
      <point x="613" y="-134" type="curve" smooth="yes"/>
      <point x="613" y="-100"/>
      <point x="637" y="-76"/>
      <point x="671" y="-76" type="curve" smooth="yes"/>
      <point x="705" y="-76"/>
      <point x="729" y="-100"/>
      <point x="729" y="-134" type="curve" smooth="yes"/>
      <point x="729" y="-168"/>
      <point x="705" y="-192"/>
    </contour>
    <contour>
      <point x="671" y="-236" type="curve" smooth="yes"/>
      <point x="733" y="-236"/>
      <point x="779" y="-192"/>
      <point x="779" y="-134" type="curve" smooth="yes"/>
      <point x="779" y="-76"/>
      <point x="733" y="-32"/>
      <point x="671" y="-32" type="curve" smooth="yes"/>
      <point x="609" y="-32"/>
      <point x="563" y="-76"/>
      <point x="563" y="-134" type="curve" smooth="yes"/>
      <point x="563" y="-192"/>
      <point x="609" y="-236"/>
    </contour>
    <contour>
      <point x="132" y="0" type="curve"/>
      <point x="228" y="0" type="line"/>
      <point x="228" y="73"/>
      <point x="228" y="147"/>
      <point x="228" y="220" type="curve" smooth="yes"/>
      <point x="228" y="360" type="line"/>
      <point x="216" y="360" type="line"/>
      <point x="208" y="508" type="line"/>
      <point x="168" y="508" type="line"/>
      <point x="44" y="468" type="line"/>
      <point x="44" y="416" type="line"/>
      <point x="132" y="416" type="line"/>
      <point x="132" y="369"/>
      <point x="132" y="323"/>
      <point x="132" y="276" type="curve" smooth="yes"/>
      <point x="132" y="220" type="line" smooth="yes"/>
      <point x="132" y="147"/>
      <point x="132" y="73"/>
    </contour>
    <contour>
      <point x="212" y="284" type="line"/>
      <point x="244" y="340"/>
      <point x="292" y="404"/>
      <point x="364" y="436" type="curve"/>
      <point x="308" y="436" type="line"/>
      <point x="328" y="416" type="line" smooth="yes"/>
      <point x="344" y="400"/>
      <point x="364" y="384"/>
      <point x="396" y="384" type="curve" smooth="yes"/>
      <point x="444" y="384"/>
      <point x="464" y="424"/>
      <point x="468" y="460" type="curve"/>
      <point x="460" y="484"/>
      <point x="436" y="516"/>
      <point x="388" y="516" type="curve" smooth="yes"/>
      <point x="316" y="516"/>
      <point x="284" y="452"/>
      <point x="244" y="364" type="curve"/>
      <point x="212" y="364" type="line"/>
    </contour>
  </outline>
</glyph>
<glyph name="uni001E" format="2">
  <advance width="810"/>
  <unicode hex="001E"/>
  <outline>
    <contour>
      <point x="172" y="446" type="line"/>
      <point x="360" y="446" type="line"/>
      <point x="360" y="508" type="line"/>
      <point x="172" y="508" type="line"/>
    </contour>
    <contour>
      <point x="500" y="-177" type="curve" smooth="yes"/>
      <point x="536" y="-177"/>
      <point x="564" y="-149"/>
      <point x="564" y="-113" type="curve" smooth="yes"/>
      <point x="564" y="-77"/>
      <point x="536" y="-49"/>
      <point x="500" y="-49" type="curve" smooth="yes"/>
      <point x="464" y="-49"/>
      <point x="436" y="-77"/>
      <point x="436" y="-113" type="curve" smooth="yes"/>
      <point x="436" y="-149"/>
      <point x="464" y="-177"/>
    </contour>
    <contour>
      <point x="716" y="-177" type="curve" smooth="yes"/>
      <point x="752" y="-177"/>
      <point x="780" y="-149"/>
      <point x="780" y="-113" type="curve" smooth="yes"/>
      <point x="780" y="-77"/>
      <point x="752" y="-49"/>
      <point x="716" y="-49" type="curve" smooth="yes"/>
      <point x="680" y="-49"/>
      <point x="652" y="-77"/>
      <point x="652" y="-113" type="curve" smooth="yes"/>
      <point x="652" y="-149"/>
      <point x="680" y="-177"/>
    </contour>
    <contour>
      <point x="256" y="-8" type="curve" smooth="yes"/>
      <point x="312" y="-8"/>
      <point x="356" y="16"/>
      <point x="372" y="28" type="curve"/>
      <point x="350" y="78" type="line"/>
      <point x="336" y="72"/>
      <point x="314" y="64"/>
      <point x="286" y="64" type="curve" smooth="yes"/>
      <point x="240" y="64"/>
      <point x="216" y="84"/>
      <point x="216" y="140" type="curve" smooth="yes"/>
      <point x="216" y="460" type="line"/>
      <point x="208" y="460" type="line"/>
      <point x="224" y="648" type="line"/>
      <point x="160" y="648" type="line"/>
      <point x="128" y="484" type="line"/>
      <point x="160" y="512" type="line"/>
      <point x="28" y="496" type="line"/>
      <point x="28" y="446" type="line"/>
      <point x="120" y="446" type="line"/>
      <point x="120" y="200" type="line" smooth="yes"/>
      <point x="120" y="177"/>
      <point x="120" y="155"/>
      <point x="120" y="132" type="curve" smooth="yes"/>
      <point x="120" y="36"/>
      <point x="176" y="-8"/>
    </contour>
  </outline>
</glyph>
